<!DOCTYPE svg PUBLIC "-//W3C//DTD SVG 20010904//EN" "http://www.w3.org/TR/2001/REC-SVG-20010904/DTD/svg10.dtd">
<svg version="1.0" xmlns="http://www.w3.org/2000/svg" width="280px" height="110px" viewBox="0 0 2800 1100" preserveAspectRatio="xMidYMid meet">
<g id="layer101" fill="#ffffff" stroke="none">
 <path d="M759 1007 c-197 -133 -399 -244 -547 -301 l-42 -16 0 185 0 185 -23 0 c-13 0 -32 -6 -43 -14 -18 -13 -19 -28 -19 -189 l0 -175 -43 -7 c-41 -6 -42 -7 -42 -46 0 -43 11 -52 65 -53 l32 -1 12 -118 c7 -64 28 -193 46 -285 19 -92 35 -168 35 -169 0 -11 40 1 54 16 16 18 16 26 -8 147 -29 151 -61 392 -54 400 7 6 175 -90 278 -159 116 -78 263 -191 397 -304 97 -82 128 -103 152 -103 20 0 31 5 31 14 0 18 -168 177 -300 283 -109 88 -360 260 -443 303 -26 14 -47 27 -47 30 0 3 68 38 151 79 84 41 201 108 262 148 61 40 111 73 112 73 0 0 0 -42 0 -93 0 -81 3 -99 28 -149 50 -102 120 -136 172 -83 48 47 23 164 -61 290 -43 66 -37 79 33 72 58 -6 109 -41 157 -108 22 -32 59 -84 80 -114 35 -49 43 -56 70 -53 47 5 58 36 51 141 -9 130 10 115 85 -68 41 -98 46 -105 80 -105 48 0 54 18 40 128 -15 112 -5 149 41 166 42 15 81 -2 136 -59 49 -51 73 -99 73 -151 0 -28 23 -46 52 -42 19 2 23 9 21 38 -6 142 -5 168 7 190 17 33 29 40 67 40 44 0 102 -53 165 -150 77 -119 89 -131 123 -128 46 5 57 36 50 141 -9 130 10 115 85 -68 41 -98 46 -105 80 -105 48 0 54 18 40 128 -11 83 -11 103 1 128 16 33 55 50 93 40 40 -10 105 -75 151 -150 44 -72 65 -84 65 -36 0 65 -95 201 -164 234 -19 9 -59 16 -91 16 -51 0 -60 -3 -91 -34 -34 -34 -41 -62 -36 -144 1 -34 -13 -19 -33 35 -44 116 -106 162 -151 112 -16 -17 -18 -35 -16 -122 1 -79 -1 -98 -10 -82 -64 116 -158 224 -211 244 -76 29 -155 -1 -186 -69 l-18 -39 -33 34 c-46 47 -88 65 -155 65 -51 0 -60 -3 -91 -34 -34 -34 -41 -62 -36 -144 1 -34 -13 -19 -33 35 -44 116 -106 162 -151 112 -16 -17 -18 -35 -16 -122 l2 -102 -23 36 c-59 97 -98 148 -142 187 -50 44 -89 57 -154 50 -32 -3 -41 0 -44 14 -3 10 -9 18 -15 18 -5 0 -52 -29 -103 -63z m137 -202 c47 -101 50 -192 4 -135 -26 32 -60 141 -60 189 1 35 1 35 16 16 9 -11 27 -42 40 -70z"/>
 <path d="M1762 628 c-16 -16 -15 -60 1 -82 9 -12 23 -17 47 -14 33 3 35 6 38 41 2 21 -2 45 -9 53 -14 17 -61 18 -77 2z"/>
 </g>

</svg>