<?xml version="1.0" encoding="iso-8859-1"?>
<!-- Generator: Adobe Illustrator 19.0.0, SVG Export Plug-In . SVG Version: 6.00 Build 0)  -->
<svg version="1.1" id="Capa_1" xmlns="http://www.w3.org/2000/svg" xmlns:xlink="http://www.w3.org/1999/xlink" x="0px" y="0px"
	 viewBox="0 0 414.295 414.295" style="enable-background:new 0 0 414.295 414.295;" xml:space="preserve">
<path style="fill:#FFE05F;" d="M180.804,406.211C85.59,406.306,8.326,329.198,8.231,233.984
	C8.135,138.77,85.244,61.507,180.458,61.411c39.416-0.04,77.654,13.428,108.346,38.16l2.88,2.32l0.72,20.4l20.32,0.72l2.32,2.88
	c59.691,74.067,48.037,182.498-26.029,242.189C258.362,392.784,220.172,406.241,180.804,406.211z M180.804,132.531
	c-56.112-0.188-101.752,45.147-101.94,101.259c-0.188,56.112,45.147,101.752,101.259,101.94s101.752-45.147,101.94-101.259
	c0.082-24.497-8.689-48.198-24.699-66.74l-4.88-5.6l-5.6-4.88C228.539,141.345,205.084,132.57,180.804,132.531L180.804,132.531z"/>
<path style="fill:#FFA757;" d="M180.804,265.891c-17.673,0-32-14.327-32-32s14.327-32,32-32c4.768,0.028,9.469,1.122,13.76,3.2
	l10.16,4.88l4.88,10.16c2.078,4.291,3.172,8.992,3.2,13.76C212.804,251.564,198.477,265.891,180.804,265.891L180.804,265.891z"/>
<path style="fill:#FFFFFF;" d="M180.804,335.171C124.868,335.256,79.455,289.98,79.37,234.045
	c-0.085-55.935,45.191-101.349,101.126-101.434c23.941-0.036,47.122,8.41,65.428,23.84l6.64,5.6l5.6,6.64
	c36.053,42.708,30.658,106.557-12.05,142.61C227.846,326.722,204.71,335.178,180.804,335.171L180.804,335.171z M180.804,201.891
	c-17.673-0.018-32.014,14.294-32.032,31.968s14.294,32.014,31.968,32.032s32.014-14.294,32.032-31.968
	c0.006-6.3-1.847-12.461-5.328-17.712l-3.6-5.44l-5.44-3.6c-5.215-3.471-11.335-5.335-17.6-5.36L180.804,201.891z"/>
<path style="fill:#FFA757;" d="M292.324,122.291l-1.52-45.04l69.12-69.12l1.52,45.04l45.04,1.52l-69.12,69.12L292.324,122.291z"/>
<path style="fill:#3F342B;" d="M406.804,46.691l-37.6-1.28l-1.28-37.6c-0.149-4.416-3.849-7.875-8.265-7.726
	c-2.041,0.069-3.979,0.915-5.415,2.366l-69.04,68.72c-1.558,1.568-2.398,3.711-2.32,5.92v8
	C200.799,28.544,88.417,49.247,31.87,131.331S-3.975,325.798,78.11,382.345s194.467,35.844,251.014-46.24
	c42.471-61.651,42.471-143.122,0-204.774h8c2.126,0.012,4.17-0.823,5.68-2.32l69.12-69.12c3.139-3.109,3.164-8.174,0.055-11.314
	c-1.437-1.451-3.374-2.298-5.415-2.366L406.804,46.691z M345.204,233.811c0.12,90.928-73.495,164.737-164.423,164.857
	c-90.928,0.12-164.737-73.495-164.857-164.423c-0.12-90.928,73.495-164.737,164.423-164.857
	c37.649-0.05,74.177,12.806,103.497,36.423l0.4,13.36l-32,32c-45.521-39.897-114.766-35.337-154.663,10.184
	s-35.337,114.766,10.184,154.663s114.766,35.337,154.663-10.184c35.846-40.9,36.279-101.899,1.016-143.303l32-32l13.2,0.48
	C332.172,160.12,345.068,196.383,345.204,233.811z M175.444,239.171c3.12,3.102,8.16,3.102,11.28,0l16-16
	c1.559,3.218,2.379,6.744,2.4,10.32c0,13.255-10.745,24-24,24s-24-10.745-24-24s10.745-24,24-24c3.576,0.021,7.102,0.841,10.32,2.4
	l-16,16C172.342,231.011,172.342,236.051,175.444,239.171L175.444,239.171z M203.124,200.131
	c-18.422-12.192-43.24-7.142-55.432,11.28c-12.192,18.422-7.142,43.24,11.28,55.432c18.422,12.192,43.24,7.142,55.432-11.28
	c8.858-13.385,8.858-30.768,0-44.152l37.92-37.92c33.243,39.472,28.192,98.419-11.28,131.662s-98.419,28.192-131.662-11.28
	s-28.192-98.419,11.28-131.662c34.782-29.292,85.6-29.292,120.382,0L203.124,200.131z M334.484,115.331l-34.08-1.12l-1.12-34.08
	l53.6-53.6l0.88,26.64c0,4.418,3.582,8,8,8l26.64,0.88L334.484,115.331z"/>
<g>
</g>
<g>
</g>
<g>
</g>
<g>
</g>
<g>
</g>
<g>
</g>
<g>
</g>
<g>
</g>
<g>
</g>
<g>
</g>
<g>
</g>
<g>
</g>
<g>
</g>
<g>
</g>
<g>
</g>
</svg>
